PathFileType	4	(X/Y/Z)	C:/Users/opensim2020/Desktop/walking_exp_matlab/subject03_walking14_straight_01.trc	
DataRate	CameraRate	NumFrames	NumMarkers	Units	OrigDataRate	OrigDataStartFrame	OrigNumFrames	
100.00	100.00	9	47	mm	100.00	501	205	
Frame#	Time	LFHD			RFHD			LBHD			RBHD			C7			T10			CLAV			STRN			RBAK			LSHO			LUPA			LELB			LFRM			LWRA			LWRB			LFIN			RSHO			RUPA			RELB			RFRM			RWRA			RWRB			RFIN			LASI			RASI			LPSI			RPSI			LTHI			LKNE			LTIB			LANK			LHEE			LTOE			RTHI			RKNE			RTIB			RANK			RHEE			RTOE			*39			*40			*41			*42			*43			*44			*45			*46			
		X1	Y1	Z1	X2	Y2	Z2	X3	Y3	Z3	X4	Y4	Z4	X5	Y5	Z5	X6	Y6	Z6	X7	Y7	Z7	X8	Y8	Z8	X9	Y9	Z9	X10	Y10	Z10	X11	Y11	Z11	X12	Y12	Z12	X13	Y13	Z13	X14	Y14	Z14	X15	Y15	Z15	X16	Y16	Z16	X17	Y17	Z17	X18	Y18	Z18	X19	Y19	Z19	X20	Y20	Z20	X21	Y21	Z21	X22	Y22	Z22	X23	Y23	Z23	X24	Y24	Z24	X25	Y25	Z25	X26	Y26	Z26	X27	Y27	Z27	X28	Y28	Z28	X29	Y29	Z29	X30	Y30	Z30	X31	Y31	Z31	X32	Y32	Z32	X33	Y33	Z33	X34	Y34	Z34	X35	Y35	Z35	X36	Y36	Z36	X37	Y37	Z37	X38	Y38	Z38	X39	Y39	Z39	X40	Y40	Z40	X41	Y41	Z41	X42	Y42	Z42	X43	Y43	Z43	X44	Y44	Z44	X45	Y45	Z45	X46	Y46	Z46	X47	Y47	Z47	

26	0.250	1400.31702	-989.78949	1630.11829	1532.91577	-995.41870	1634.06921	1400.17615	-1114.74658	1578.59021	1530.77734	-1116.39355	1582.71228	1458.23022	-1139.81812	1420.56946	1444.76172	-1177.81726	1112.35437	1457.44214	-1013.80890	1346.92639	1444.99890	-973.60590	1179.45850	1546.10535	-1190.95789	1242.76941	1303.58655	-1066.13525	1391.98193	1223.29224	-1059.65210	1201.99072	1210.82617	-1031.98645	1084.58862	1224.87488	-947.22046	992.28241	1270.95020	-865.76111	916.09491	1225.38440	-886.86456	894.65509	1241.78406	-820.20703	849.21613	1615.79224	-1066.07251	1363.51416	1686.13367	-1057.32898	1141.87659	1697.51843	-1039.44983	1029.84973	1701.73962	-1025.37476	893.39398	1667.54248	-998.55463	796.26727	1712.31055	-1028.82141	792.21497	1699.94775	-1014.13092	718.44379	1328.97998	-1034.32324	934.56653	1564.38660	-1025.98901	944.14862	1379.10437	-1191.78674	968.60229	1526.55920	-1185.15515	986.93414	1276.06665	-1080.00623	632.26355	1292.82410	-1049.56702	454.83075	1317.36694	-1196.66052	326.68661	1378.33691	-1340.95203	186.00334	1423.42285	-1387.15234	189.55542	1389.19531	-1264.28491	59.45483	1620.94360	-1075.08435	655.73700	1588.16992	-1049.89246	479.74591	1604.15857	-1102.66260	292.69754	1567.11951	-1141.19580	76.13120	1521.66479	-1190.00684	42.38903	1537.44507	-1003.03839	38.73193																								 
27	0.260	1400.74780	-980.35638	1631.13464	1533.42053	-985.68347	1635.08801	1400.95935	-1105.47583	1579.48364	1531.54858	-1106.47302	1583.48682	1459.43713	-1129.87646	1421.48926	1446.61487	-1168.12305	1113.33582	1457.10095	-1007.96973	1346.92480	1445.59961	-963.95038	1180.24915	1547.81213	-1180.63391	1243.78772	1304.32288	-1056.96362	1392.54468	1223.55237	-1052.18958	1202.58643	1210.50146	-1024.98499	1084.63330	1224.04736	-942.00922	990.49512	1269.93811	-862.47906	912.29279	1223.56885	-883.47296	891.87274	1240.95703	-818.15308	844.04504	1616.58386	-1055.40796	1364.76917	1686.90515	-1043.77185	1143.36548	1698.15002	-1025.07117	1031.56299	1702.22217	-1008.76398	895.36963	1667.63904	-980.75641	798.79266	1712.54370	-1010.60632	794.18988	1699.53723	-993.87732	720.27252	1330.13135	-1024.67517	936.57446	1565.37207	-1016.33533	944.44000	1380.06360	-1182.18933	969.73639	1527.67358	-1175.38525	987.39331	1276.24927	-1063.75757	634.56018	1292.96143	-1028.68127	458.16553	1318.10559	-1172.58325	325.86786	1379.89526	-1312.79224	181.17079	1425.04712	-1359.27893	182.51144	1392.02417	-1230.38611	58.33818	1623.26599	-1072.50989	657.60199	1588.00098	-1047.87219	479.32162	1603.94360	-1101.71936	292.78384	1566.75879	-1140.75964	76.15456	1521.44604	-1189.87488	42.63218	1537.35095	-1002.82397	38.62632																								 
28	0.270	1401.08667	-970.91376	1631.91833	1533.70374	-975.80914	1635.84985	1401.60315	-1097.22083	1580.20264	1532.39087	-1096.72327	1584.10950	1460.45764	-1119.97229	1422.09167	1448.38269	-1158.43188	1114.13306	1457.48352	-998.16107	1347.48474	1446.14197	-954.44110	1180.67517	1549.52905	-1170.29053	1244.72095	1305.00549	-1047.70020	1392.80359	1223.87659	-1044.66956	1202.99390	1210.20154	-1018.26123	1084.73999	1223.18799	-937.03473	988.59882	1268.71521	-859.48260	907.84058	1221.56543	-880.56897	888.70203	1239.82349	-816.77808	838.28772	1617.19946	-1044.86865	1365.82153	1687.72058	-1031.36987	1144.62061	1698.71350	-1010.62933	1033.14917	1702.65417	-992.28345	897.24921	1667.54382	-962.92230	801.26538	1712.68835	-992.35107	796.03882	1699.82446	-973.76605	722.59412	1331.19006	-1015.10522	938.46411	1566.16174	-1006.77161	944.52924	1381.18591	-1172.79565	970.99634	1528.81506	-1165.61511	987.86774	1276.33057	-1047.35815	636.77148	1293.32056	-1008.01105	461.17447	1318.81873	-1148.06262	324.52368	1381.13708	-1283.45667	175.15933	1426.56091	-1330.69897	174.54343	1393.92480	-1194.91663	56.69350	1622.61975	-1066.82849	657.54144	1587.71021	-1045.70044	478.85693	1603.55859	-1100.54846	292.84094	1566.50134	-1140.68518	76.47820	1521.12781	-1189.72974	43.00407	1537.18799	-1002.50696	38.46565																								 
29	0.280	1401.34204	-961.45251	1632.38123	1533.95972	-965.98706	1636.38806	1402.19714	-1087.40063	1580.36218	1533.00977	-1086.70715	1584.34985	1461.36060	-1109.96252	1422.41541	1450.00134	-1148.79700	1114.72913	1457.88550	-988.13159	1347.85059	1446.54272	-944.86383	1180.93872	1551.23181	-1159.83801	1245.37085	1305.53333	-1038.31665	1392.92090	1224.13379	-1037.08630	1202.97205	1209.83801	-1011.57721	1084.20422	1222.18738	-932.32770	986.26648	1267.28528	-856.78180	903.05890	1219.47595	-877.96088	885.25201	1238.38977	-816.13574	832.05804	1617.76978	-1034.15027	1366.64758	1688.61926	-1017.97333	1145.75903	1699.40295	-996.26886	1034.46692	1702.83826	-976.00842	899.00409	1667.38721	-945.08899	803.56366	1712.80396	-974.03058	797.81592	1700.37622	-953.66199	725.42218	1331.98511	-1005.69012	940.13660	1566.73901	-997.01904	944.54047	1382.31726	-1163.37646	971.87036	1530.03088	-1155.82312	988.12079	1276.36072	-1031.15735	638.91815	1293.86353	-987.69647	464.19809	1319.44348	-1123.29626	322.62720	1381.94238	-1253.28613	168.20749	1427.79639	-1300.76062	165.29791	1395.12756	-1157.78552	54.91520	1622.11755	-1060.82703	657.32788	1587.41736	-1043.31921	478.36044	1603.14209	-1099.31104	292.83871	1565.99255	-1140.26990	76.59752	1520.75903	-1189.51392	43.35355	1537.04993	-1002.21295	38.31833																								 
30	0.290	1401.54590	-952.01910	1632.41382	1534.03870	-955.96851	1636.60046	1402.68140	-1077.78857	1580.35767	1533.52161	-1076.65833	1584.35962	1462.19458	-1100.04651	1422.74158	1451.50891	-1139.13428	1115.08655	1458.08911	-978.14868	1347.97632	1446.89441	-935.22375	1180.82214	1552.80823	-1149.38879	1245.87537	1305.91699	-1028.78015	1392.75305	1224.37781	-1029.45337	1202.81653	1209.66541	-1005.04285	1083.98999	1221.17358	-927.79077	983.75439	1265.64893	-855.01849	897.61548	1217.26306	-875.82959	881.47369	1236.58984	-816.04767	825.44769	1618.21936	-1022.96765	1367.06604	1689.42297	-1005.11511	1146.65942	1699.98376	-981.81500	1035.62646	1703.14575	-959.41669	900.52802	1667.25903	-927.21912	805.75140	1713.01257	-955.78015	799.37378	1700.09546	-933.63025	727.40802	1333.14905	-995.40363	941.83539	1567.25525	-987.30762	944.35596	1383.42444	-1154.04138	972.54224	1531.20715	-1145.97083	988.06787	1276.42468	-1015.17480	641.03186	1294.61230	-967.98962	467.28735	1319.88977	-1098.41406	320.41400	1382.43311	-1221.92004	160.45331	1428.42175	-1269.37048	154.74544	1395.22632	-1120.12854	53.21474	1621.69507	-1054.44873	657.00275	1587.19739	-1040.76526	477.77109	1602.77734	-1098.09119	292.89438	1565.51770	-1140.02905	76.85543	1520.43921	-1189.54236	44.17529	1536.96973	-1001.84418	38.18119																								 
31	0.300	1401.67249	-942.29248	1632.40979	1534.19604	-946.01740	1636.66846	1403.07861	-1067.95459	1579.96362	1533.91418	-1066.52966	1584.08386	1462.78076	-1089.73669	1422.53943	1452.84924	-1129.56628	1115.22095	1458.23901	-968.14099	1347.80164	1447.17883	-925.41583	1180.75830	1554.28296	-1138.88904	1246.20520	1306.19080	-1019.13086	1392.33228	1224.62122	-1021.69830	1202.32983	1209.31616	-998.91394	1083.17126	1220.08350	-923.54462	980.75940	1263.86023	-852.55511	892.44269	1214.95911	-873.95306	877.45087	1234.36572	-816.67963	818.48389	1618.58484	-1011.65820	1367.24585	1690.23914	-992.89771	1147.17432	1700.66125	-967.47046	1036.59595	1703.40747	-942.71680	901.73151	1667.09729	-909.40179	807.74274	1713.05432	-937.48560	800.78925	1700.17419	-913.28632	729.53131	1333.58582	-986.42773	942.72754	1567.66907	-977.67102	943.93347	1384.49951	-1144.60657	972.96088	1532.22437	-1136.15015	987.80762	1276.45813	-999.59082	643.00537	1295.44153	-948.78796	470.03040	1320.41443	-1073.42542	317.91843	1382.67041	-1188.90515	152.03311	1428.66760	-1237.05603	143.74219	1394.35791	-1081.95752	51.27447	1621.48132	-1047.87732	656.64862	1587.11804	-1038.06628	477.17117	1602.47668	-1096.93018	292.92151	1565.13818	-1139.81372	77.16019	1519.97485	-1189.26709	44.57444	1536.90955	-1001.48212	38.08075																								 
32	0.310	1401.66687	-932.63660	1632.26038	1534.26770	-936.04938	1636.51990	1403.38586	-1058.14880	1579.51831	1534.22205	-1056.40955	1583.57886	1463.29419	-1079.60791	1422.38623	1454.06689	-1119.96912	1115.10217	1458.36755	-957.95416	1347.49426	1447.11865	-915.98883	1180.07239	1555.67407	-1128.45227	1246.40417	1306.30359	-1009.40411	1391.66113	1224.75977	-1013.92120	1201.59192	1209.02393	-992.58636	1082.07434	1219.05396	-919.21844	977.70917	1261.83020	-850.91345	886.43793	1212.59802	-872.51306	873.03339	1231.87012	-817.72742	811.31073	1618.75757	-1000.63135	1367.24365	1691.04578	-979.54138	1147.59949	1701.32678	-953.60956	1037.25330	1703.65808	-926.20447	902.83820	1666.95374	-891.61639	809.53467	1713.03040	-919.28864	802.07599	1699.99426	-893.74408	731.61591	1334.11133	-976.97668	943.36969	1568.14063	-967.87488	943.42230	1385.26221	-1135.09106	972.71063	1533.19055	-1126.45581	987.35748	1276.60034	-984.18365	644.75909	1296.32813	-930.10315	472.89529	1320.85840	-1048.51453	315.27817	1382.40015	-1155.92175	143.39552	1428.19910	-1203.22888	131.75543	1393.02942	-1042.94287	49.60933	1621.30127	-1041.14075	656.19910	1586.89282	-1035.47546	476.44336	1602.27441	-1095.60596	292.89899	1564.74768	-1139.54871	77.40585	1519.54626	-1189.11157	44.97252	1536.81189	-1001.17310	38.00095																								 
33	0.320	1401.68298	-922.77307	1631.86475	1534.23035	-925.97241	1636.08862	1403.58643	-1048.15759	1578.70825	1534.47339	-1046.13123	1582.74426	1463.65686	-1069.26721	1421.97034	1455.14771	-1110.29602	1114.75647	1458.30212	-947.90796	1346.88452	1447.17065	-906.15381	1179.45862	1556.89355	-1117.95972	1246.40247	1306.32214	-999.63000	1390.76294	1224.91089	-1005.89734	1200.58105	1209.04004	-985.77899	1080.68115	1217.81531	-915.32886	974.11658	1259.79785	-849.69238	880.34607	1210.17664	-871.48724	868.38037	1228.96021	-819.39709	803.99371	1618.83105	-989.69910	1366.91638	1691.62024	-966.99487	1147.59851	1701.97705	-939.35010	1037.68958	1703.91943	-909.79443	903.72626	1666.82019	-873.80573	811.20007	1713.00354	-901.05292	803.13757	1700.22961	-873.61523	733.52539	1334.72449	-967.35815	943.71320	1568.61340	-958.00146	942.64514	1385.89795	-1125.45654	972.21765	1533.92773	-1116.61609	986.59814	1276.74207	-969.16785	646.27106	1297.54248	-911.96960	475.39044	1321.33801	-1023.53162	312.49588	1381.94104	-1121.98877	134.79750	1427.60437	-1168.20020	119.70171	1391.23547	-1003.51208	47.97195	1620.94775	-1033.93958	655.10797	1587.00745	-1032.33447	475.73547	1602.18799	-1093.89050	292.81134	1564.34351	-1139.05420	77.52854	1519.23145	-1188.93787	45.32550	1536.70117	-1000.80298	37.93014																								 
34	0.330	1401.61792	-912.84534	1631.33398	1534.17651	-915.80737	1635.42834	1403.64978	-1037.97681	1577.76501	1534.54468	-1035.85242	1581.77234	1463.98364	-1058.95764	1421.41382	1456.14514	-1100.69092	1114.25671	1458.14063	-937.71155	1346.05811	1447.23132	-896.27588	1178.60913	1557.94531	-1107.47449	1246.19714	1306.64014	-990.43353	1389.84900	1225.07422	-997.86774	1199.26123	1208.62048	-979.11823	1078.92383	1216.71228	-911.53070	970.34943	1257.53882	-848.55469	873.90656	1207.73792	-870.87622	863.42084	1225.83008	-821.42377	796.63257	1618.81067	-978.36505	1366.33350	1692.10742	-953.57916	1147.41345	1702.56909	-925.20380	1037.87720	1704.16968	-893.43854	904.44635	1666.77258	-856.08612	812.60474	1713.01160	-882.93878	804.06769	1700.09973	-854.17181	735.19415	1335.32959	-957.48816	943.64386	1568.97424	-948.27460	941.63495	1386.39404	-1115.78967	971.42621	1534.56470	-1106.84216	985.66895	1276.94446	-954.48126	647.42822	1299.22144	-894.08136	477.75439	1321.61157	-998.57605	309.50897	1381.05762	-1087.12024	125.96454	1426.70410	-1132.57544	108.01889	1388.94556	-963.89954	46.46793	1619.40735	-1025.97131	653.60199	1586.89136	-1029.08044	474.84598	1601.91968	-1091.67627	292.58929	1563.85681	-1138.50513	77.65807	1518.69421	-1188.48303	45.30564	1536.55347	-1000.44220	37.90049																								 
